<svg width="26" height="29" viewBox="0 0 26 29" fill="none" xmlns="http://www.w3.org/2000/svg">
<g clip-path="url(#clip0_50_131054)">
<path d="M21.752 5.41652C19.4147 3.0737 16.3021 1.78516 12.9943 1.78516C6.16668 1.78516 0.610867 7.34097 0.610867 14.1686C0.610867 16.3496 1.17984 18.4805 2.26199 20.3603L0.504883 26.7752L7.07034 25.0515C8.87765 26.0388 10.9137 26.5576 12.9887 26.5576H12.9943C19.8164 26.5576 25.4949 21.0018 25.4949 14.1742C25.4949 10.8663 24.0892 7.75933 21.752 5.41652ZM12.9943 24.4714C11.1424 24.4714 9.32948 23.9749 7.75087 23.0378L7.37713 22.8147L3.4836 23.8355L4.52113 20.0368L4.2757 19.6463C3.24374 18.0063 2.70266 16.1154 2.70266 14.1686C2.70266 8.49564 7.32135 3.87695 12.9999 3.87695C15.7499 3.87695 18.3326 4.94795 20.2738 6.89472C22.2149 8.84148 23.4087 11.4242 23.4031 14.1742C23.4031 19.8527 18.6673 24.4714 12.9943 24.4714ZM18.6394 16.7624C18.3326 16.6062 16.8097 15.8588 16.5253 15.7584C16.2408 15.6524 16.0344 15.6022 15.828 15.9145C15.6216 16.2269 15.0303 16.9186 14.8462 17.1306C14.6677 17.337 14.4837 17.3649 14.1769 17.2087C12.3584 16.2994 11.1647 15.5854 9.96538 13.5271C9.64743 12.9805 10.2833 13.0195 10.8746 11.8369C10.975 11.6305 10.9248 11.452 10.8467 11.2959C10.7686 11.1397 10.1495 9.61684 9.89287 8.99767C9.64185 8.39523 9.38526 8.47891 9.1956 8.46775C9.0171 8.45659 8.81071 8.45659 8.60432 8.45659C8.39793 8.45659 8.06324 8.53469 7.77876 8.84148C7.49427 9.15386 6.6966 9.90133 6.6966 11.4242C6.6966 12.947 7.80665 14.4196 7.95726 14.626C8.11345 14.8324 10.1383 17.9561 13.2453 19.3005C15.2088 20.1483 15.9786 20.2209 16.9604 20.0758C17.5572 19.9866 18.79 19.3284 19.0466 18.6032C19.3032 17.878 19.3032 17.2589 19.2251 17.1306C19.1526 16.9911 18.9462 16.913 18.6394 16.7624Z" fill="#7AD06D"/>
</g>
<defs>
<clipPath id="clip0_50_131054">
<rect width="24.99" height="28.56" fill="white" transform="translate(0.504883)"/>
</clipPath>
</defs>
</svg>
