<svg width="88" height="17" viewBox="0 0 88 17" fill="none" xmlns="http://www.w3.org/2000/svg">
<path d="M6.512 13.2798H4.568L0.95 0.679784H2.714L5.594 11.0478L8.654 0.679784H10.346L13.406 11.0478L16.286 0.679784H18.05L14.432 13.2798H12.488L9.5 3.21778L6.512 13.2798ZM23.8184 4.04578C24.8744 4.04578 25.7204 4.38178 26.3564 5.05378C26.9924 5.71378 27.3104 6.61378 27.3104 7.75378V13.2798H25.7444V7.84378C25.7444 7.12378 25.5464 6.55978 25.1504 6.15178C24.7544 5.74378 24.2084 5.53979 23.5124 5.53979C22.7084 5.53979 22.0724 5.79179 21.6044 6.29578C21.1364 6.78779 20.9024 7.52579 20.9024 8.50978V13.2798H19.3364V0.679784H20.9024V5.57578C21.5264 4.55578 22.4984 4.04578 23.8184 4.04578ZM36.9486 5.82778V4.27979H38.5146V13.2798H36.9486V11.7318C36.1806 12.9198 35.0466 13.5138 33.5466 13.5138C32.2746 13.5138 31.2006 13.0578 30.3246 12.1458C29.4366 11.2218 28.9926 10.0998 28.9926 8.77979C28.9926 7.47178 29.4366 6.35578 30.3246 5.43178C31.2126 4.50778 32.2866 4.04578 33.5466 4.04578C35.0466 4.04578 36.1806 4.63978 36.9486 5.82778ZM33.7446 12.0018C34.6566 12.0018 35.4186 11.6958 36.0306 11.0838C36.6426 10.4478 36.9486 9.67979 36.9486 8.77979C36.9486 7.86779 36.6426 7.10579 36.0306 6.49379C35.4186 5.86978 34.6566 5.55778 33.7446 5.55778C32.8446 5.55778 32.0886 5.86978 31.4766 6.49379C30.8646 7.10579 30.5586 7.86779 30.5586 8.77979C30.5586 9.67979 30.8646 10.4478 31.4766 11.0838C32.0886 11.6958 32.8446 12.0018 33.7446 12.0018ZM45.7832 4.27979V5.79179H43.3892V10.6698C43.3892 11.1138 43.4732 11.4318 43.6412 11.6238C43.8212 11.8038 44.0912 11.8998 44.4512 11.9118C44.8112 11.9118 45.2552 11.8998 45.7832 11.8758V13.2798C44.4032 13.4598 43.3952 13.3458 42.7592 12.9378C42.1352 12.5298 41.8232 11.7738 41.8232 10.6698V5.79179H40.0412V4.27979H41.8232V2.22778L43.3892 1.75978V4.27979H45.7832ZM48.5478 6.70978C48.5478 7.28579 49.1418 7.73579 50.3298 8.05978C50.7738 8.15578 51.1458 8.25779 51.4458 8.36579C51.7578 8.46178 52.0938 8.61178 52.4538 8.81578C52.8258 9.01979 53.1078 9.28979 53.2998 9.62578C53.4918 9.96178 53.5878 10.3578 53.5878 10.8138C53.5878 11.6298 53.2698 12.2838 52.6338 12.7758C51.9978 13.2678 51.1938 13.5138 50.2218 13.5138C49.3578 13.5138 48.6078 13.3278 47.9718 12.9558C47.3478 12.5718 46.9038 12.0558 46.6398 11.4078L47.9898 10.6338C48.1338 11.0658 48.4038 11.4078 48.7998 11.6598C49.1958 11.9118 49.6698 12.0378 50.2218 12.0378C50.7618 12.0378 51.1938 11.9358 51.5178 11.7318C51.8418 11.5278 52.0038 11.2218 52.0038 10.8138C52.0038 10.2018 51.4098 9.75778 50.2218 9.48178C49.8258 9.37378 49.5258 9.28978 49.3218 9.22978C49.1178 9.16979 48.8358 9.06179 48.4758 8.90578C48.1278 8.74978 47.8638 8.58778 47.6838 8.41978C47.5038 8.23978 47.3358 8.00578 47.1798 7.71778C47.0358 7.41778 46.9638 7.08778 46.9638 6.72778C46.9638 5.94778 47.2638 5.30578 47.8638 4.80178C48.4758 4.29778 49.2378 4.04578 50.1498 4.04578C50.8818 4.04578 51.5298 4.21378 52.0938 4.54978C52.6698 4.87378 53.1018 5.32978 53.3898 5.91778L52.0758 6.65578C51.7518 5.88778 51.1098 5.50378 50.1498 5.50378C49.6938 5.50378 49.3098 5.61178 48.9978 5.82778C48.6978 6.04378 48.5478 6.33778 48.5478 6.70978ZM65.6839 13.2798H63.9019L62.8759 10.4538H57.2059L56.1799 13.2798H54.3979L59.0959 0.679784H60.9859L65.6839 13.2798ZM60.0319 2.67778L57.7819 8.88778H62.2999L60.0319 2.67778ZM71.9763 4.04578C73.2363 4.04578 74.3103 4.50778 75.1983 5.43178C76.0863 6.35578 76.5303 7.47178 76.5303 8.77979C76.5303 10.0998 76.0863 11.2218 75.1983 12.1458C74.3223 13.0578 73.2483 13.5138 71.9763 13.5138C70.4883 13.5138 69.3543 12.9198 68.5743 11.7318V16.8798H67.0083V4.27979H68.5743V5.82778C69.3543 4.63978 70.4883 4.04578 71.9763 4.04578ZM71.7783 12.0018C72.6783 12.0018 73.4343 11.6958 74.0463 11.0838C74.6583 10.4478 74.9643 9.67979 74.9643 8.77979C74.9643 7.86779 74.6583 7.10579 74.0463 6.49379C73.4343 5.86978 72.6783 5.55778 71.7783 5.55778C70.8663 5.55778 70.1043 5.86978 69.4923 6.49379C68.8803 7.10579 68.5743 7.86779 68.5743 8.77979C68.5743 9.67979 68.8803 10.4478 69.4923 11.0838C70.1043 11.6958 70.8663 12.0018 71.7783 12.0018ZM83.3669 4.04578C84.6269 4.04578 85.7009 4.50778 86.5889 5.43178C87.4769 6.35578 87.9209 7.47178 87.9209 8.77979C87.9209 10.0998 87.4769 11.2218 86.5889 12.1458C85.7129 13.0578 84.6389 13.5138 83.3669 13.5138C81.8789 13.5138 80.7449 12.9198 79.9649 11.7318V16.8798H78.3989V4.27979H79.9649V5.82778C80.7449 4.63978 81.8789 4.04578 83.3669 4.04578ZM83.1689 12.0018C84.0689 12.0018 84.8249 11.6958 85.4369 11.0838C86.0489 10.4478 86.3549 9.67979 86.3549 8.77979C86.3549 7.86779 86.0489 7.10579 85.4369 6.49379C84.8249 5.86978 84.0689 5.55778 83.1689 5.55778C82.2569 5.55778 81.4949 5.86978 80.8829 6.49379C80.2709 7.10579 79.9649 7.86779 79.9649 8.77979C79.9649 9.67979 80.2709 10.4478 80.8829 11.0838C81.4949 11.6958 82.2569 12.0018 83.1689 12.0018Z" fill="#7AD06D"/>
</svg>
