<svg width="25" height="26" viewBox="0 0 25 26" fill="none" xmlns="http://www.w3.org/2000/svg">
<path d="M20.9619 4.11046C20.691 4.12241 20.4387 4.20132 20.2165 4.29113C20.0083 4.37485 19.2131 4.71591 17.9606 5.25304C16.707 5.79064 15.0471 6.5033 13.2764 7.26476C9.73497 8.78768 5.75351 10.502 3.71419 11.3793C3.63751 11.4123 3.36993 11.4978 3.08594 11.7195C2.80194 11.9412 2.5 12.4006 2.5 12.9125C2.5 13.3253 2.69672 13.7354 2.94434 13.9803C3.19195 14.2251 3.45396 14.346 3.67839 14.4376C4.49269 14.7699 7.01821 15.8034 7.49512 15.9985C7.66295 16.5126 8.57708 19.3089 8.78906 19.9943C8.92881 20.4465 9.06183 20.7297 9.23503 20.9545C9.32162 21.0669 9.42229 21.1654 9.54427 21.2426C9.59303 21.2735 9.64649 21.2972 9.70052 21.3191L9.70378 21.3207C9.71623 21.3258 9.72696 21.3342 9.73958 21.3387C9.7634 21.347 9.77934 21.348 9.8112 21.3549C9.93814 21.3959 10.0663 21.4217 10.1807 21.4217C10.6683 21.4217 10.9668 21.1531 10.9668 21.1531L10.9847 21.1401L13.4928 18.9705L16.5348 21.8481C16.5777 21.9087 16.9771 22.4568 17.8581 22.4568C18.3812 22.4568 18.7961 22.1943 19.0625 21.9148C19.3289 21.6353 19.4949 21.3417 19.5654 20.9724V20.9708C19.6314 20.6219 22.4349 6.2296 22.4349 6.2296L22.43 6.24913C22.5121 5.87454 22.5336 5.52568 22.443 5.18143C22.3525 4.83717 22.1139 4.50756 21.818 4.33019C21.5222 4.15286 21.2328 4.09851 20.9619 4.11046ZM20.8057 5.852C20.8017 5.87632 20.8087 5.86409 20.8024 5.89269L20.8008 5.90246L20.7992 5.91222C20.7992 5.91222 18.0304 20.1205 17.9281 20.6616C17.9355 20.6207 17.9013 20.702 17.8662 20.7511C17.8166 20.7169 17.7148 20.673 17.7148 20.673L17.6986 20.6551L13.5433 16.7244L10.6055 19.2635L11.4795 15.7641C11.4795 15.7641 16.943 10.1086 17.2721 9.77941C17.5371 9.51608 17.5928 9.42428 17.5928 9.33344C17.5928 9.21178 17.5294 9.12348 17.3877 9.12348C17.2602 9.12348 17.0887 9.24744 16.9971 9.30578C15.8028 10.0671 10.5599 13.1228 8.20964 14.4897C7.83615 14.3368 5.24139 13.2747 4.36198 12.9158C4.36864 12.9129 4.36645 12.9139 4.37337 12.9109C6.41322 12.0333 10.393 10.319 13.9339 8.79634C15.7044 8.03498 17.3656 7.32178 18.6182 6.78462C19.8515 6.25572 20.7084 5.89172 20.8057 5.852Z" fill="#23A0DD"/>
</svg>
