<svg width="76" height="18" viewBox="0 0 76 18" fill="none" xmlns="http://www.w3.org/2000/svg">
<path d="M0.324 0.690038H9.414V2.27404H5.688V13.29H4.032V2.27404H0.324V0.690038ZM17.9139 9.51004H10.3719C10.5279 10.302 10.8939 10.926 11.4699 11.382C12.0459 11.826 12.7659 12.048 13.6299 12.048C14.8179 12.048 15.6819 11.61 16.2219 10.734L17.5539 11.49C16.6659 12.846 15.3459 13.524 13.5939 13.524C12.1779 13.524 11.0139 13.08 10.1019 12.192C9.21394 11.28 8.76994 10.146 8.76994 8.79004C8.76994 7.42204 9.20794 6.29404 10.0839 5.40604C10.9599 4.50604 12.0939 4.05604 13.4859 4.05604C14.8059 4.05604 15.8799 4.52404 16.7079 5.46004C17.5479 6.37204 17.9679 7.48804 17.9679 8.80804C17.9679 9.03604 17.9499 9.27004 17.9139 9.51004ZM13.4859 5.53204C12.6579 5.53204 11.9619 5.76604 11.3979 6.23404C10.8459 6.70204 10.5039 7.33804 10.3719 8.14204H16.3839C16.2519 7.31404 15.9219 6.67204 15.3939 6.21604C14.8659 5.76004 14.2299 5.53204 13.4859 5.53204ZM21.3341 13.29H19.7681V0.150039H21.3341V13.29ZM32.3632 9.51004H24.8212C24.9772 10.302 25.3432 10.926 25.9192 11.382C26.4952 11.826 27.2152 12.048 28.0792 12.048C29.2672 12.048 30.1312 11.61 30.6712 10.734L32.0032 11.49C31.1152 12.846 29.7952 13.524 28.0432 13.524C26.6272 13.524 25.4632 13.08 24.5512 12.192C23.6632 11.28 23.2192 10.146 23.2192 8.79004C23.2192 7.42204 23.6572 6.29404 24.5332 5.40604C25.4092 4.50604 26.5432 4.05604 27.9352 4.05604C29.2552 4.05604 30.3292 4.52404 31.1572 5.46004C31.9972 6.37204 32.4172 7.48804 32.4172 8.80804C32.4172 9.03604 32.3992 9.27004 32.3632 9.51004ZM27.9352 5.53204C27.1072 5.53204 26.4112 5.76604 25.8472 6.23404C25.2952 6.70204 24.9532 7.33804 24.8212 8.14204H30.8332C30.7012 7.31404 30.3712 6.67204 29.8432 6.21604C29.3152 5.76004 28.6792 5.53204 27.9352 5.53204ZM41.6697 5.83804V4.29004H43.2177V12.912C43.2177 14.244 42.7677 15.276 41.8677 16.008C40.9557 16.752 39.8757 17.124 38.6277 17.124C37.6197 17.124 36.7497 16.932 36.0177 16.548C35.2857 16.176 34.7337 15.636 34.3617 14.928L35.7297 14.154C36.2217 15.162 37.1997 15.666 38.6637 15.666C39.5997 15.666 40.3317 15.42 40.8597 14.928C41.3997 14.436 41.6697 13.764 41.6697 12.912V11.634C40.8777 12.834 39.7497 13.434 38.2857 13.434C36.9897 13.434 35.9037 12.978 35.0277 12.066C34.1397 11.142 33.6957 10.032 33.6957 8.73604C33.6957 7.44004 34.1397 6.33604 35.0277 5.42404C35.9037 4.51204 36.9897 4.05604 38.2857 4.05604C39.7617 4.05604 40.8897 4.65004 41.6697 5.83804ZM41.6697 8.73604C41.6697 7.83604 41.3637 7.08004 40.7517 6.46804C40.1397 5.85604 39.3777 5.55004 38.4657 5.55004C37.5537 5.55004 36.7917 5.85604 36.1797 6.46804C35.5677 7.08004 35.2617 7.83604 35.2617 8.73604C35.2617 9.64804 35.5677 10.41 36.1797 11.022C36.7917 11.634 37.5537 11.94 38.4657 11.94C39.3777 11.94 40.1397 11.634 40.7517 11.022C41.3637 10.41 41.6697 9.64804 41.6697 8.73604ZM47.1563 4.29004V5.80204C47.6723 4.68604 48.6083 4.12804 49.9643 4.12804V5.76604C49.1963 5.73004 48.5363 5.93404 47.9843 6.37804C47.4323 6.82204 47.1563 7.53604 47.1563 8.52004V13.29H45.5903V4.29004H47.1563ZM58.4564 5.83804V4.29004H60.0224V13.29H58.4564V11.742C57.6884 12.93 56.5544 13.524 55.0544 13.524C53.7824 13.524 52.7084 13.068 51.8324 12.156C50.9444 11.232 50.5004 10.11 50.5004 8.79004C50.5004 7.48204 50.9444 6.36604 51.8324 5.44204C52.7204 4.51804 53.7944 4.05604 55.0544 4.05604C56.5544 4.05604 57.6884 4.65004 58.4564 5.83804ZM55.2524 12.012C56.1644 12.012 56.9264 11.706 57.5384 11.094C58.1504 10.458 58.4564 9.69004 58.4564 8.79004C58.4564 7.87804 58.1504 7.11604 57.5384 6.50404C56.9264 5.88004 56.1644 5.56804 55.2524 5.56804C54.3524 5.56804 53.5964 5.88004 52.9844 6.50404C52.3724 7.11604 52.0664 7.87804 52.0664 8.79004C52.0664 9.69004 52.3724 10.458 52.9844 11.094C53.5964 11.706 54.3524 12.012 55.2524 12.012ZM72.115 4.05604C73.135 4.05604 73.951 4.38604 74.563 5.04604C75.187 5.70604 75.499 6.58804 75.499 7.69204V13.29H73.933V7.74604C73.933 7.06204 73.753 6.52804 73.393 6.14404C73.045 5.74804 72.565 5.55004 71.953 5.55004C71.257 5.55004 70.711 5.78404 70.315 6.25204C69.931 6.70804 69.739 7.38604 69.739 8.28604V13.29H68.173V7.74604C68.173 7.06204 67.999 6.52804 67.651 6.14404C67.315 5.74804 66.853 5.55004 66.265 5.55004C65.581 5.55004 65.023 5.79004 64.591 6.27004C64.171 6.73804 63.961 7.41004 63.961 8.28604V13.29H62.395V4.29004H63.961V5.49604C64.573 4.53604 65.467 4.05604 66.643 4.05604C67.855 4.05604 68.737 4.56604 69.289 5.58604C69.913 4.56604 70.855 4.05604 72.115 4.05604Z" fill="#23A0DD"/>
</svg>
